<svg xmlns="http://www.w3.org/2000/svg" xmlns:xlink="http://www.w3.org/1999/xlink" width="1920" zoomAndPan="magnify" viewBox="0 0 1440 809.999993" height="1080" preserveAspectRatio="xMidYMid meet" version="1.0"><defs><g/></defs><g fill="#1e3a8a" fill-opacity="0.4"><g transform="translate(39.085628, 320.438227)"><g><path d="M 134.28125 0 L 44.34375 0 L 44.34375 -24.640625 L 75.140625 -24.640625 L 75.140625 -206.34375 L 29.5625 -206.34375 L 29.5625 -170.625 L 6.15625 -170.625 L 6.15625 -230.984375 L 172.46875 -230.984375 L 172.46875 -170.625 L 149.0625 -170.625 L 149.0625 -206.34375 L 103.484375 -206.34375 L 103.484375 -24.640625 L 134.28125 -24.640625 Z M 134.28125 0 "/></g></g></g><g fill="#1e3a8a" fill-opacity="0.4"><g transform="translate(217.717839, 320.438227)"><g><path d="M 24.640625 -200.1875 L 171.234375 -200.1875 L 171.234375 -139.828125 L 146.59375 -139.828125 L 146.59375 -175.546875 L 74.53125 -175.546875 L 74.53125 -112.421875 L 146.59375 -112.421875 L 146.59375 -87.78125 L 74.53125 -87.78125 L 74.53125 -24.640625 L 146.59375 -24.640625 L 146.59375 -60.359375 L 171.234375 -60.359375 L 171.234375 0 L 24.640625 0 L 24.640625 -24.640625 L 46.203125 -24.640625 L 46.203125 -175.546875 L 24.640625 -175.546875 Z M 24.640625 -200.1875 "/></g></g></g><g fill="#1e3a8a" fill-opacity="0.4"><g transform="translate(413.597316, 320.438227)"><g><path d="M 24.640625 -200.1875 L 147.828125 -200.1875 L 179.859375 -166.3125 L 179.859375 -104.71875 L 148.75 -72.0625 L 177.40625 -24.640625 L 193.71875 -24.640625 L 193.71875 0 L 138.90625 0 L 138.90625 -24.640625 L 147.53125 -24.640625 L 119.8125 -70.84375 L 74.53125 -70.84375 L 74.53125 -24.640625 L 93.015625 -24.640625 L 93.015625 0 L 24.640625 0 L 24.640625 -24.640625 L 46.203125 -24.640625 L 46.203125 -175.546875 L 24.640625 -175.546875 Z M 74.53125 -173.703125 L 74.53125 -97.328125 L 135.515625 -97.328125 L 153.375 -115.5 L 153.375 -155.53125 L 135.828125 -173.703125 Z M 74.53125 -173.703125 "/></g></g></g><g fill="#1e3a8a" fill-opacity="0.4"><g transform="translate(628.879983, 320.438227)"><g><path d="M 132.4375 0 L 132.4375 -24.640625 L 152.765625 -24.640625 L 139.515625 -62.828125 L 62.515625 -62.828125 L 49.28125 -24.640625 L 69.90625 -24.640625 L 69.90625 0 L 4.625 0 L 4.625 -24.640625 L 20.9375 -24.640625 L 73 -175.546875 L 60.0625 -175.546875 L 60.0625 -200.1875 L 142.28125 -200.1875 L 142.28125 -175.546875 L 129.046875 -175.546875 L 181.09375 -24.640625 L 197.71875 -24.640625 L 197.71875 0 Z M 101.015625 -174.625 L 70.84375 -87.46875 L 131.203125 -87.46875 Z M 101.015625 -174.625 "/></g></g></g><g fill="#1e3a8a" fill-opacity="0.4"><g transform="translate(831.227201, 320.438227)"><g><path d="M 160.15625 -158.296875 L 134.59375 -158.296875 L 134.59375 -185.40625 L 116.109375 -204.5 L 68.984375 -204.5 L 52.96875 -188.171875 L 52.96875 -145.671875 L 68.0625 -130.28125 L 132.125 -130.28125 L 163.234375 -97.625 L 163.234375 -33.875 L 131.203125 0 L 53.59375 0 L 21.5625 -33.875 L 21.5625 -72.6875 L 47.125 -72.6875 L 47.125 -45.578125 L 65.90625 -26.484375 L 119.1875 -26.484375 L 134.890625 -42.8125 L 134.890625 -88.703125 L 120.109375 -103.796875 L 56.046875 -103.796875 L 24.640625 -136.75 L 24.640625 -197.109375 L 56.671875 -230.984375 L 128.125 -230.984375 L 160.15625 -197.109375 Z M 160.15625 -158.296875 "/></g></g></g><g fill="#1e3a8a" fill-opacity="0.4"><g transform="translate(1016.019163, 320.438227)"><g><path d="M 21.5625 -24.640625 L 46.203125 -24.640625 L 46.203125 -175.546875 L 21.5625 -175.546875 L 21.5625 -200.1875 L 99.171875 -200.1875 L 99.171875 -175.546875 L 74.53125 -175.546875 L 74.53125 -24.640625 L 99.171875 -24.640625 L 99.171875 0 L 21.5625 0 Z M 21.5625 -24.640625 "/></g></g></g><g fill="#1e3a8a" fill-opacity="0.4"><g transform="translate(1136.749883, 320.438227)"><g><path d="M 74.53125 -24.640625 L 96.09375 -24.640625 L 96.09375 0 L 24.640625 0 L 24.640625 -24.640625 L 46.203125 -24.640625 L 46.203125 -175.546875 L 24.640625 -175.546875 L 24.640625 -200.1875 L 87.46875 -200.1875 L 145.671875 -54.515625 L 203.890625 -200.1875 L 266.71875 -200.1875 L 266.71875 -175.546875 L 245.15625 -175.546875 L 245.15625 -24.640625 L 266.71875 -24.640625 L 266.71875 0 L 195.265625 0 L 195.265625 -24.640625 L 216.828125 -24.640625 L 216.828125 -165.390625 L 159.234375 -24.640625 L 132.125 -24.640625 L 74.53125 -165.390625 Z M 74.53125 -24.640625 "/></g></g></g><g fill="#1e3a8a" fill-opacity="1"><g transform="translate(25.474033, 306.826633)"><g><path d="M 134.28125 0 L 44.34375 0 L 44.34375 -24.640625 L 75.140625 -24.640625 L 75.140625 -206.34375 L 29.5625 -206.34375 L 29.5625 -170.625 L 6.15625 -170.625 L 6.15625 -230.984375 L 172.46875 -230.984375 L 172.46875 -170.625 L 149.0625 -170.625 L 149.0625 -206.34375 L 103.484375 -206.34375 L 103.484375 -24.640625 L 134.28125 -24.640625 Z M 134.28125 0 "/></g></g></g><g fill="#1e3a8a" fill-opacity="1"><g transform="translate(204.106244, 306.826633)"><g><path d="M 24.640625 -200.1875 L 171.234375 -200.1875 L 171.234375 -139.828125 L 146.59375 -139.828125 L 146.59375 -175.546875 L 74.53125 -175.546875 L 74.53125 -112.421875 L 146.59375 -112.421875 L 146.59375 -87.78125 L 74.53125 -87.78125 L 74.53125 -24.640625 L 146.59375 -24.640625 L 146.59375 -60.359375 L 171.234375 -60.359375 L 171.234375 0 L 24.640625 0 L 24.640625 -24.640625 L 46.203125 -24.640625 L 46.203125 -175.546875 L 24.640625 -175.546875 Z M 24.640625 -200.1875 "/></g></g></g><g fill="#1e3a8a" fill-opacity="1"><g transform="translate(399.985722, 306.826633)"><g><path d="M 24.640625 -200.1875 L 147.828125 -200.1875 L 179.859375 -166.3125 L 179.859375 -104.71875 L 148.75 -72.0625 L 177.40625 -24.640625 L 193.71875 -24.640625 L 193.71875 0 L 138.90625 0 L 138.90625 -24.640625 L 147.53125 -24.640625 L 119.8125 -70.84375 L 74.53125 -70.84375 L 74.53125 -24.640625 L 93.015625 -24.640625 L 93.015625 0 L 24.640625 0 L 24.640625 -24.640625 L 46.203125 -24.640625 L 46.203125 -175.546875 L 24.640625 -175.546875 Z M 74.53125 -173.703125 L 74.53125 -97.328125 L 135.515625 -97.328125 L 153.375 -115.5 L 153.375 -155.53125 L 135.828125 -173.703125 Z M 74.53125 -173.703125 "/></g></g></g><g fill="#1e3a8a" fill-opacity="1"><g transform="translate(615.268388, 306.826633)"><g><path d="M 132.4375 0 L 132.4375 -24.640625 L 152.765625 -24.640625 L 139.515625 -62.828125 L 62.515625 -62.828125 L 49.28125 -24.640625 L 69.90625 -24.640625 L 69.90625 0 L 4.625 0 L 4.625 -24.640625 L 20.9375 -24.640625 L 73 -175.546875 L 60.0625 -175.546875 L 60.0625 -200.1875 L 142.28125 -200.1875 L 142.28125 -175.546875 L 129.046875 -175.546875 L 181.09375 -24.640625 L 197.71875 -24.640625 L 197.71875 0 Z M 101.015625 -174.625 L 70.84375 -87.46875 L 131.203125 -87.46875 Z M 101.015625 -174.625 "/></g></g></g><g fill="#1e3a8a" fill-opacity="1"><g transform="translate(817.615606, 306.826633)"><g><path d="M 160.15625 -158.296875 L 134.59375 -158.296875 L 134.59375 -185.40625 L 116.109375 -204.5 L 68.984375 -204.5 L 52.96875 -188.171875 L 52.96875 -145.671875 L 68.0625 -130.28125 L 132.125 -130.28125 L 163.234375 -97.625 L 163.234375 -33.875 L 131.203125 0 L 53.59375 0 L 21.5625 -33.875 L 21.5625 -72.6875 L 47.125 -72.6875 L 47.125 -45.578125 L 65.90625 -26.484375 L 119.1875 -26.484375 L 134.890625 -42.8125 L 134.890625 -88.703125 L 120.109375 -103.796875 L 56.046875 -103.796875 L 24.640625 -136.75 L 24.640625 -197.109375 L 56.671875 -230.984375 L 128.125 -230.984375 L 160.15625 -197.109375 Z M 160.15625 -158.296875 "/></g></g></g><g fill="#1e3a8a" fill-opacity="1"><g transform="translate(1002.407568, 306.826633)"><g><path d="M 21.5625 -24.640625 L 46.203125 -24.640625 L 46.203125 -175.546875 L 21.5625 -175.546875 L 21.5625 -200.1875 L 99.171875 -200.1875 L 99.171875 -175.546875 L 74.53125 -175.546875 L 74.53125 -24.640625 L 99.171875 -24.640625 L 99.171875 0 L 21.5625 0 Z M 21.5625 -24.640625 "/></g></g></g><g fill="#1e3a8a" fill-opacity="1"><g transform="translate(1123.138288, 306.826633)"><g><path d="M 74.53125 -24.640625 L 96.09375 -24.640625 L 96.09375 0 L 24.640625 0 L 24.640625 -24.640625 L 46.203125 -24.640625 L 46.203125 -175.546875 L 24.640625 -175.546875 L 24.640625 -200.1875 L 87.46875 -200.1875 L 145.671875 -54.515625 L 203.890625 -200.1875 L 266.71875 -200.1875 L 266.71875 -175.546875 L 245.15625 -175.546875 L 245.15625 -24.640625 L 266.71875 -24.640625 L 266.71875 0 L 195.265625 0 L 195.265625 -24.640625 L 216.828125 -24.640625 L 216.828125 -165.390625 L 159.234375 -24.640625 L 132.125 -24.640625 L 74.53125 -165.390625 Z M 74.53125 -24.640625 "/></g></g></g><g fill="#1e3a8a" fill-opacity="0.4"><g transform="translate(154.114477, 751.24599)"><g><path d="M 24.640625 -230.984375 L 155.84375 -230.984375 L 187.875 -197.109375 L 187.875 -33.875 L 155.84375 0 L 24.640625 0 L 24.640625 -24.640625 L 46.203125 -24.640625 L 46.203125 -206.34375 L 24.640625 -206.34375 Z M 74.53125 -26.484375 L 143.515625 -26.484375 L 159.53125 -42.8125 L 159.53125 -188.171875 L 143.828125 -204.5 L 74.53125 -204.5 Z M 74.53125 -26.484375 "/></g></g></g><g fill="#1e3a8a" fill-opacity="0.4"><g transform="translate(366.625248, 751.24599)"><g><path d="M 24.640625 -200.1875 L 171.234375 -200.1875 L 171.234375 -139.828125 L 146.59375 -139.828125 L 146.59375 -175.546875 L 74.53125 -175.546875 L 74.53125 -112.421875 L 146.59375 -112.421875 L 146.59375 -87.78125 L 74.53125 -87.78125 L 74.53125 -24.640625 L 146.59375 -24.640625 L 146.59375 -60.359375 L 171.234375 -60.359375 L 171.234375 0 L 24.640625 0 L 24.640625 -24.640625 L 46.203125 -24.640625 L 46.203125 -175.546875 L 24.640625 -175.546875 Z M 24.640625 -200.1875 "/></g></g></g><g fill="#1e3a8a" fill-opacity="0.4"><g transform="translate(562.504725, 751.24599)"><g><path d="M 24.640625 -200.1875 L 147.828125 -200.1875 L 179.859375 -166.3125 L 179.859375 -101.640625 L 147.828125 -67.75 L 74.53125 -67.75 L 74.53125 -24.640625 L 99.171875 -24.640625 L 99.171875 0 L 24.640625 0 L 24.640625 -24.640625 L 46.203125 -24.640625 L 46.203125 -175.546875 L 24.640625 -175.546875 Z M 74.53125 -173.703125 L 74.53125 -94.25 L 135.515625 -94.25 L 153.375 -112.421875 L 153.375 -155.53125 L 135.828125 -173.703125 Z M 74.53125 -173.703125 "/></g></g></g><g fill="#1e3a8a" fill-opacity="0.4"><g transform="translate(754.688308, 751.24599)"><g><path d="M 24.640625 -200.1875 L 99.171875 -200.1875 L 99.171875 -175.546875 L 74.53125 -175.546875 L 74.53125 -24.640625 L 141.671875 -24.640625 L 141.671875 -60.359375 L 165.078125 -60.359375 L 165.078125 0 L 24.640625 0 L 24.640625 -24.640625 L 46.203125 -24.640625 L 46.203125 -175.546875 L 24.640625 -175.546875 Z M 24.640625 -200.1875 "/></g></g></g><g fill="#1e3a8a" fill-opacity="0.4"><g transform="translate(925.928844, 751.24599)"><g><path d="M 56.671875 0 L 24.640625 -33.875 L 24.640625 -166.3125 L 56.671875 -200.1875 L 143.515625 -200.1875 L 175.546875 -166.3125 L 175.546875 -33.875 L 143.515625 0 Z M 68.6875 -26.484375 L 131.203125 -26.484375 L 147.21875 -42.8125 L 147.21875 -157.375 L 131.515625 -173.703125 L 68.984375 -173.703125 L 52.96875 -157.375 L 52.96875 -42.8125 Z M 68.6875 -26.484375 "/></g></g></g><g fill="#1e3a8a" fill-opacity="0.4"><g transform="translate(1126.120176, 751.24599)"><g><path d="M 135.515625 0 L 51.734375 0 L 51.734375 -24.640625 L 79.453125 -24.640625 L 79.453125 -62.828125 L 25.875 -175.546875 L 6.15625 -175.546875 L 6.15625 -200.1875 L 71.453125 -200.1875 L 71.453125 -175.546875 L 52.96875 -175.546875 L 93.3125 -90.234375 L 133.96875 -175.546875 L 115.5 -175.546875 L 115.5 -200.1875 L 180.78125 -200.1875 L 180.78125 -175.546875 L 161.078125 -175.546875 L 107.796875 -63.4375 L 107.796875 -24.640625 L 135.515625 -24.640625 Z M 135.515625 0 "/></g></g></g><g fill="#1e3a8a" fill-opacity="1"><g transform="translate(140.502882, 737.634396)"><g><path d="M 24.640625 -230.984375 L 155.84375 -230.984375 L 187.875 -197.109375 L 187.875 -33.875 L 155.84375 0 L 24.640625 0 L 24.640625 -24.640625 L 46.203125 -24.640625 L 46.203125 -206.34375 L 24.640625 -206.34375 Z M 74.53125 -26.484375 L 143.515625 -26.484375 L 159.53125 -42.8125 L 159.53125 -188.171875 L 143.828125 -204.5 L 74.53125 -204.5 Z M 74.53125 -26.484375 "/></g></g></g><g fill="#1e3a8a" fill-opacity="1"><g transform="translate(353.013653, 737.634396)"><g><path d="M 24.640625 -200.1875 L 171.234375 -200.1875 L 171.234375 -139.828125 L 146.59375 -139.828125 L 146.59375 -175.546875 L 74.53125 -175.546875 L 74.53125 -112.421875 L 146.59375 -112.421875 L 146.59375 -87.78125 L 74.53125 -87.78125 L 74.53125 -24.640625 L 146.59375 -24.640625 L 146.59375 -60.359375 L 171.234375 -60.359375 L 171.234375 0 L 24.640625 0 L 24.640625 -24.640625 L 46.203125 -24.640625 L 46.203125 -175.546875 L 24.640625 -175.546875 Z M 24.640625 -200.1875 "/></g></g></g><g fill="#1e3a8a" fill-opacity="1"><g transform="translate(548.89313, 737.634396)"><g><path d="M 24.640625 -200.1875 L 147.828125 -200.1875 L 179.859375 -166.3125 L 179.859375 -101.640625 L 147.828125 -67.75 L 74.53125 -67.75 L 74.53125 -24.640625 L 99.171875 -24.640625 L 99.171875 0 L 24.640625 0 L 24.640625 -24.640625 L 46.203125 -24.640625 L 46.203125 -175.546875 L 24.640625 -175.546875 Z M 74.53125 -173.703125 L 74.53125 -94.25 L 135.515625 -94.25 L 153.375 -112.421875 L 153.375 -155.53125 L 135.828125 -173.703125 Z M 74.53125 -173.703125 "/></g></g></g><g fill="#1e3a8a" fill-opacity="1"><g transform="translate(741.076714, 737.634396)"><g><path d="M 24.640625 -200.1875 L 99.171875 -200.1875 L 99.171875 -175.546875 L 74.53125 -175.546875 L 74.53125 -24.640625 L 141.671875 -24.640625 L 141.671875 -60.359375 L 165.078125 -60.359375 L 165.078125 0 L 24.640625 0 L 24.640625 -24.640625 L 46.203125 -24.640625 L 46.203125 -175.546875 L 24.640625 -175.546875 Z M 24.640625 -200.1875 "/></g></g></g><g fill="#1e3a8a" fill-opacity="1"><g transform="translate(912.31725, 737.634396)"><g><path d="M 56.671875 0 L 24.640625 -33.875 L 24.640625 -166.3125 L 56.671875 -200.1875 L 143.515625 -200.1875 L 175.546875 -166.3125 L 175.546875 -33.875 L 143.515625 0 Z M 68.6875 -26.484375 L 131.203125 -26.484375 L 147.21875 -42.8125 L 147.21875 -157.375 L 131.515625 -173.703125 L 68.984375 -173.703125 L 52.96875 -157.375 L 52.96875 -42.8125 Z M 68.6875 -26.484375 "/></g></g></g><g fill="#1e3a8a" fill-opacity="1"><g transform="translate(1112.508581, 737.634396)"><g><path d="M 135.515625 0 L 51.734375 0 L 51.734375 -24.640625 L 79.453125 -24.640625 L 79.453125 -62.828125 L 25.875 -175.546875 L 6.15625 -175.546875 L 6.15625 -200.1875 L 71.453125 -200.1875 L 71.453125 -175.546875 L 52.96875 -175.546875 L 93.3125 -90.234375 L 133.96875 -175.546875 L 115.5 -175.546875 L 115.5 -200.1875 L 180.78125 -200.1875 L 180.78125 -175.546875 L 161.078125 -175.546875 L 107.796875 -63.4375 L 107.796875 -24.640625 L 135.515625 -24.640625 Z M 135.515625 0 "/></g></g></g></svg>